<svg xmlns="http://www.w3.org/2000/svg" width="140.898" height="81.548" viewBox="0 0 140.898 81.548">
  <g id="icon_car_geo" transform="translate(-9591.277 -6721.15)">
    <g id="pelak" transform="translate(9472.613 5945.819)">
      <g id="Group_661" data-name="Group 661" transform="translate(118.664 796.681)">
        <path id="Path_1739" data-name="Path 1739" d="M1436.178,282.8c-15.071-.028-26.565-.1-26.565-.1s-33.782,1.63-37.581-2.479c-5.262-5.694-.834-19.927,11.33-24.318a10.509,10.509,0,0,1,2.543-.562l30.059-2.264a33.879,33.879,0,0,1,30.89-18.677h18.367c10.75,0,23.2,19.952,23.2,19.952s18.279,1.2,19.324,6.157c1.585,7.516,6.552,18.3-1.357,21.271-2.1.788-46.948,1-71.657,1.022" transform="translate(-1369.848 -234.402)" fill="#d1e8ff"/>
        <path id="Path_1743" data-name="Path 1743" d="M1464.46,243.137a7.088,7.088,0,0,0-.543-2.4c-.841-1.34-13.335-1.467-17.307-.4-6.079,1.626-16.815,10.042-14.578,15,1.173,2.6,27.435,2.6,30.3.69.945-.631,1.548-2.28,1.9-4.278" transform="translate(-1379.342 -235.905)" fill="#3198ff"/>
        <path id="Path_1744" data-name="Path 1744" d="M1431.73,244.149" transform="translate(-1349.516 -234.402)" fill="#526c7f" stroke="#5a47c5" stroke-linecap="round" stroke-linejoin="round" stroke-width="2"/>
        <path id="Path_1745" data-name="Path 1745" d="M1431.56,249.157" transform="translate(-1349.185 -236.424)" fill="#526c7f" stroke="#5a47c5" stroke-linecap="round" stroke-linejoin="round" stroke-width="2"/>
        <path id="Path_1747" data-name="Path 1747" d="M1431.633,251.616" transform="translate(-1349.328 -239.143)" fill="#526c7f" stroke="#5a47c5" stroke-miterlimit="10" stroke-width="2"/>
        <path id="Path_1748" data-name="Path 1748" d="M1431.957,255.235" transform="translate(-1349.959 -240.14)" fill="#526c7f" stroke="#5a47c5" stroke-miterlimit="10" stroke-width="2"/>
        <path id="Path_1749" data-name="Path 1749" d="M1426.326,255.869c-1.258,1.373-18.667,1.4-21.613-.266-2.565-1.454-1.954-13.412-1.137-14.855.406-.717,8.246-.886,9.9-.178C1417.884,242.1,1428.675,253.3,1426.326,255.869Z" transform="translate(-1314.747 -235.402)" fill="#3198ff"/>
        <ellipse id="Ellipse_578" data-name="Ellipse 578" cx="11.889" cy="11.889" rx="11.889" ry="11.889" transform="translate(99.147 34.92)" fill="#d1e8ff" stroke="#3198ff" stroke-miterlimit="10" stroke-width="3"/>
        <ellipse id="Ellipse_580" data-name="Ellipse 580" cx="11.889" cy="11.889" rx="11.889" ry="11.889" transform="translate(16.824 34.92)" fill="#d1e8ff" stroke="#3198ff" stroke-miterlimit="10" stroke-width="3"/>
        <path id="Path_1751" data-name="Path 1751" d="M1496.7,270.052s9.049-1.645,9.915-.629c.661.776.83,4.886-.537,5.942l-12.589,1.418Z" transform="translate(-1493.112 -244.001)" fill="#3198ff"/>
        <path id="Path_1752" data-name="Path 1752" d="M1380.714,271.462l-6.259.09c-.429,0-.777.676-.777,1.51v2.046c0,.834.348,1.51.777,1.51h7.063S1381.087,273.7,1380.714,271.462Z" transform="translate(-1243.449 -245.304)" fill="#3198ff"/>
      </g>
    </g>
    <path id="Icon_material-location-on" data-name="Icon material-location-on" d="M25.244,3A17.732,17.732,0,0,0,7.5,20.744C7.5,34.053,25.244,53.7,25.244,53.7S42.989,34.053,42.989,20.744A17.732,17.732,0,0,0,25.244,3Zm0,24.082a6.337,6.337,0,1,1,6.337-6.337A6.34,6.34,0,0,1,25.244,27.082Z" transform="translate(9609.955 6718.15)" fill="#004b97"/>
  </g>
</svg>
